<?xml version="1.0" encoding="utf-8"?><svg class="ldi-wi0jag" width="100%" height="100%" xmlns="http://www.w3.org/2000/svg" xmlns:xlink="http://www.w3.org/1999/xlink" viewBox="0 0 100 100" preserveAspectRatio="xMidYMid" style="width:200px;webkit-user-select:none;webkit-transform-origin:100px 100px;webkit-perspective-origin:100px 100px;webkit-logical-width:200px;webkit-logical-height:200px;user-select:none;transform-origin:100px 100px;r:0px;pointer-events:all;perspective-origin:100px 100px;overflow-y:hidden;overflow-x:hidden;overflow:hidden;inline-size:200px;height:200px;display:block;d:none;block-size:200px;background:rgba(0, 0, 0, 0) none repeat scroll 0% 0% / auto padding-box border-box" ><svg version="1.1" id="Layer_1" xmlns="http://www.w3.org/2000/svg" xmlns:xlink="http://www.w3.org/1999/xlink" x="0px" y="0px" viewBox="0 0 100 100" xml:space="preserve" class="" style="x:0px;webkit-user-select:none;webkit-transform-origin:50px 50px;webkit-perspective-origin:0px 0px;user-select:none;transform-origin:50px 50px;transform:none;r:0px;pointer-events:all;perspective-origin:0px 0px;overflow-y:hidden;overflow-x:hidden;overflow:hidden;display:block" ><g class="" style="x:0px;webkit-user-select:none;webkit-transform-origin:50px 50px;webkit-perspective-origin:0px 0px;user-select:none;transform-origin:50px 50px;transform:none;r:0px;pointer-events:all;perspective-origin:0px 0px" ><g class="" style="x:0px;webkit-user-select:none;webkit-transform-origin:50px 50px;webkit-transform:matrix(0.6, 0, 0, 0.6, 0, 0);webkit-perspective-origin:0px 0px;user-select:none;transform-origin:50px 50px;transform:matrix(0.6, 0, 0, 0.6, 0, 0);r:0px;pointer-events:all;perspective-origin:0px 0px" ><g class="" style="x:0px;webkit-user-select:none;webkit-transform-origin:50px 50px;webkit-perspective-origin:0px 0px;user-select:none;transform-origin:50px 50px;transform:none;r:0px;pointer-events:all;perspective-origin:0px 0px" ><g class="" style="webkit-user-select:none;webkit-perspective-origin:0px 0px;user-select:none;pointer-events:all;perspective-origin:0px 0px" ><style type="text/css" class="ld " style="y:0px;x:0px;webkit-user-select:none;webkit-transform-origin:50px 50px;webkit-animation-duration:1s;webkit-animation:1s ease 0s 1 normal none running none;user-select:none;transform-origin:50px 50px;transform:none;r:0px;pointer-events:all;direction:ltr;d:none" >.st0,.st1,.st2{fill:none;stroke:#333;stroke-width:3.5;stroke-linecap:round;stroke-miterlimit:10}.st1,.st2{fill:#f0af6b}.st2{fill:none;stroke-linejoin:round}.st3{fill:#e0e0e0;stroke:#333434}.st3,.st4,.st5,.st6{stroke-width:3.5;stroke-miterlimit:10}.st4{fill:#f3e4c7;stroke:#333}.st5,.st6{stroke-linejoin:round}.st5{stroke-linecap:round;fill:none;stroke:#fff}.st6{fill:#fff;stroke:#333}.st7{fill:#333}.st8{fill:#e0e0e0;stroke:#333}.st10,.st8,.st9{stroke-width:3.5;stroke-miterlimit:10}.st9{opacity:.2;stroke:#000}.st10{fill:none;stroke:#333}.st11{fill:#e0e0e0}.st12{fill:#666766}.st13{fill:#fff}.st14{fill:#c33837;stroke:#333}.st14,.st15,.st16,.st17{stroke-width:3.5;stroke-miterlimit:10}.st15{opacity:.2;stroke-linejoin:round;stroke:#000}.st16,.st17{fill:#f4e6c8;stroke:#333}.st17{stroke:#fff;stroke-linecap:round}.st18{fill:#849b87}.st19{opacity:.2}.st20{stroke-width:3.5;stroke-linejoin:round;stroke-miterlimit:10}.st20,.st21{fill:#e0e0e0;stroke:#333}.st21,.st22,.st23{stroke-width:3.5;stroke-linecap:round;stroke-linejoin:round}.st22{opacity:.2;stroke:#000}.st23{fill:#666;stroke:#333}.st24{fill:#d65a62}.st25{fill:#f0af6b;stroke:#333;stroke-linecap:round;stroke-linejoin:round}.st25,.st26,.st27{stroke-width:3.5;stroke-miterlimit:10}.st26{opacity:.2;stroke:#000;stroke-linecap:round;stroke-linejoin:round}.st27{fill:#a8b980}.st27,.st28,.st29{stroke:#333;stroke-linecap:round;stroke-linejoin:round}.st28{stroke-width:3.5;stroke-miterlimit:10;fill:#d65a62}.st29{fill:#ea7c60}.st29,.st30,.st31{stroke-width:3.5;stroke-miterlimit:10}.st30{stroke-linecap:round;fill:#e0e0e0;stroke:#fff}.st31{fill:#666766;stroke:#333}.st31,.st32,.st33,.st34{stroke-linejoin:round}.st32{stroke:#333;stroke-width:3.5;stroke-miterlimit:10;fill:none}.st33,.st34{fill:#67503b}.st33{stroke-width:3.5;stroke-miterlimit:10;stroke:#333}.st34{stroke:#fff;stroke-linecap:round}.st34,.st35,.st36{stroke-width:3.5;stroke-miterlimit:10}.st35{stroke:#333;stroke-linejoin:round;fill:#f47e5f}.st36{fill:#f4e6c8}.st36,.st37,.st38{stroke:#333;stroke-linejoin:round}.st37{stroke-width:3.5;stroke-miterlimit:10;fill:#f7b26a}.st38{fill:#333;stroke-linecap:round}.st38,.st39,.st40{stroke-width:3.5;stroke-miterlimit:10}.st39{stroke-linejoin:round;fill:none;stroke:#fff}.st40{fill:#feffff;stroke:#333}.st41{fill:#f0af6b}.st42{opacity:.3;fill:#f3e4c7}.st43,.st44{fill:#f0af6b;stroke-miterlimit:10}.st43{stroke-width:3.5;stroke:#333}.st44{stroke:#fff;stroke-linecap:round}.st44,.st45,.st46{stroke-width:3.5}.st45{stroke-miterlimit:10;fill:none;stroke:#fff}.st46{fill:#65503a;stroke:#333;stroke-linejoin:round}.st46,.st47,.st48{stroke-miterlimit:10}.st47{stroke:#333;stroke-width:3.5;fill:#ea7c60}.st48{fill:#a8b980}.st48,.st49,.st50,.st51{stroke:#333;stroke-width:3.5}.st49{fill:#76a0b7;stroke-miterlimit:10}.st50,.st51{stroke-linecap:round;stroke-linejoin:round}.st50{stroke-miterlimit:10;fill:#65503a}.st51{fill:#b93a38}.st51,.st52,.st53{stroke-miterlimit:10}.st52{fill:none;stroke-width:3.5;stroke-linecap:round;stroke:#fff}.st53{opacity:.2;stroke:#000}.st54,.st55{stroke:#333;stroke-linecap:round;stroke-linejoin:round}.st54{stroke-width:3.5;stroke-miterlimit:10;fill:#fff}.st55{fill:#666}.st55,.st56,.st57{stroke-width:3.5;stroke-miterlimit:10}.st56{stroke-linecap:round;stroke-linejoin:round;fill:#666;stroke:#fff}.st57{fill:#333;stroke:#333}.st58,.st59,.st60,.st61,.st62,.st63{stroke-width:3.5;stroke-linecap:round}.st58{stroke-miterlimit:10;fill:#f3e4c7;stroke:#fff}.st59,.st60,.st61,.st62,.st63{fill:none;stroke:#333;stroke-linejoin:round}.st60,.st61,.st62,.st63{stroke:#fff}.st61,.st62,.st63{fill:#f0af6b;stroke:#333}.st62,.st63{fill:#666;stroke:#fff}.st63{fill:#e0e0e0}.st64{fill:#fff;stroke:#333}.st64,.st65,.st66,.st67{stroke-width:3.5;stroke-miterlimit:10}.st65{fill:#666;stroke:#333}.st66,.st67{stroke:#000;stroke-linejoin:round}.st67{fill:#e15c64;stroke:#333}.st68{fill:#77a4bd}.st69{stroke-linejoin:round}.st69,.st70,.st71,.st72{fill:none;stroke:#fff;stroke-width:2;stroke-miterlimit:10}.st71,.st72{fill:#333;stroke-width:.3}.st72{fill:none;stroke:#333;stroke-width:2}.st73{fill:#acbd81;stroke:#333}.st73,.st74,.st75{stroke-width:3.5;stroke-miterlimit:10}.st74{fill:#849b87;stroke:#333}.st75{stroke:#b93a38}.st75,.st76{fill:none}.st77{fill:#f3e4c7}.st78{fill:#e15c64}.st79{fill:#f7b26a}.st80{fill:#f7faf8}.st81,.st82{fill:#f7b26a;stroke:#333;stroke-width:3.5;stroke-miterlimit:10}.st82{fill:#77a4bd}.st83{fill:#e15c64;stroke:#333}.st83,.st84,.st85{stroke-width:3.5;stroke-miterlimit:10}.st84{opacity:.2;stroke:#333}.st85{fill:#666}.st85,.st86,.st87{stroke:#333434}.st86{stroke-width:3.5;stroke-linejoin:round;stroke-miterlimit:10;fill:#65503a}.st87{fill:none;stroke-linecap:round}.st87,.st88,.st89{stroke-width:3.5;stroke-miterlimit:10}.st88{opacity:.2;stroke:#010101;fill:#010101}.st89{fill:#9ec4d2;stroke-linecap:round;stroke-linejoin:round}.st89,.st90,.st91{stroke:#333434}.st90{stroke-width:3.5;stroke-linecap:round;stroke-linejoin:round;stroke-miterlimit:10;fill:none}.st91{fill:#9ec4d2}.st91,.st92,.st93{stroke-width:3.5;stroke-miterlimit:10}.st92{fill:#77a0b7;stroke:#333434}.st93{stroke:#010101;stroke-linecap:round;stroke-linejoin:round}.st93,.st94{opacity:.2;fill:#010101}.st95{fill:#333434}.st96,.st97{fill:none;stroke:#fff;stroke-width:1.5;stroke-linecap:round;stroke-miterlimit:10}.st97{fill:#a8b980;stroke-width:3.5}</style>
<g class="ld " style="y:0px;x:0px;webkit-user-select:none;webkit-transform-origin:50px 50px;webkit-perspective-origin:0px 0px;webkit-animation-duration:1s;webkit-animation-delay:0.05s;webkit-animation:1s ease 0.05s 1 normal none running none;user-select:none;transform-origin:50px 50px;transform:none;r:0px;pointer-events:all;perspective-origin:0px 0px;direction:ltr;d:none" ><circle class="st7" cx="50" cy="50" r="40" fill="#8dcc71" style="webkit-user-select:none;webkit-perspective-origin:0px 0px;user-select:none;r:40px;pointer-events:all;perspective-origin:0px 0px;fill:rgb(141, 204, 113);cy:50px;cx:50px" ></circle></g>
<g class="" style="x:0px;webkit-user-select:none;webkit-transform-origin:50px 50px;webkit-perspective-origin:0px 0px;user-select:none;transform-origin:50px 50px;transform:none;r:0px;pointer-events:all;perspective-origin:0px 0px" ><g class="" style="webkit-user-select:none;webkit-perspective-origin:0px 0px;user-select:none;pointer-events:all;perspective-origin:0px 0px" ><g class="ld " style="y:0px;x:0px;webkit-user-select:none;webkit-transform-origin:50px 50px;webkit-perspective-origin:0px 0px;webkit-animation-duration:1s;webkit-animation-delay:0.1s;webkit-animation:1s ease 0.1s 1 normal none running none;user-select:none;transform-origin:50px 50px;transform:none;r:0px;pointer-events:all;perspective-origin:0px 0px;direction:ltr;d:none" ><path class="st13" d="M42.41,29.125c-12.117,0-14.66,6.735-14.66,12.385c0,3.411,0.913,6.168,2.714,8.194l0.586,0.659l-0.182,0.863 c-0.185,0.875-0.491,2.183-0.911,3.469c0.869-0.505,1.821-1.159,2.815-1.938l0.808-0.632l0.946,0.395 c2.182,0.912,4.834,1.374,7.884,1.374c12.117,0,14.66-6.734,14.66-12.384S54.527,29.125,42.41,29.125z M49.25,48.59 c-0.704,0-1.75,0-2.561,0c-1.11,0-2.454,0-3.436,0c0-0.598,0-1.216,0.021-1.814l1.046-0.064c0.043,0,0.086-0.043,0.064-0.107 c-0.107-0.32-0.299-1.003-0.427-1.323c-0.021-0.086-0.064-0.107-0.149-0.107l-3.948,0.043c-0.107,0.47-0.277,1.067-0.363,1.515 l1.174,0.064c0,0.576,0,1.195-0.021,1.793c-0.854,0-1.964,0-3.009,0c-0.704,0-1.451,0-2.092,0c0-0.598,0.021-1.216,0.043-1.793 l0.982-0.064c0.043,0,0.107-0.043,0.128-0.107c1.302-3.457,3.18-8.515,4.46-11.994c0.384-0.043,1.366-0.043,2.924-0.043 c1.238,3.586,2.924,8.686,4.098,12.122l1.088,0.086C49.272,47.373,49.272,47.992,49.25,48.59z" fill="#f5e9e3" style="webkit-user-select:none;webkit-perspective-origin:0px 0px;user-select:none;r:0px;pointer-events:all;perspective-origin:0px 0px;fill:rgb(245, 233, 227);d:path('M 42.41 29.125 C 30.293 29.125 27.75 35.86 27.75 41.51 C 27.75 44.921 28.663 47.678 30.464 49.704 L 31.05 50.363 L 30.868 51.226 C 30.683 52.101 30.377 53.409 29.957 54.695 C 30.826 54.19 31.778 53.536 32.772 52.757 L 33.58 52.125 L 34.526 52.52 C 36.708 53.432 39.36 53.894 42.41 53.894 C 54.527 53.894 57.07 47.16 57.07 41.51 S 54.527 29.125 42.41 29.125 Z M 49.25 48.59 C 48.546 48.59 47.5 48.59 46.689 48.59 C 45.579 48.59 44.235 48.59 43.253 48.59 C 43.253 47.992 43.253 47.374 43.274 46.776 L 44.32 46.712 C 44.363 46.712 44.406 46.669 44.384 46.605 C 44.277 46.285 44.085 45.602 43.957 45.282 C 43.936 45.196 43.893 45.175 43.808 45.175 L 39.86 45.218 C 39.753 45.688 39.583 46.285 39.497 46.733 L 40.671 46.797 C 40.671 47.373 40.671 47.992 40.65 48.59 C 39.796 48.59 38.686 48.59 37.641 48.59 C 36.937 48.59 36.19 48.59 35.549 48.59 C 35.549 47.992 35.57 47.374 35.592 46.797 L 36.574 46.733 C 36.617 46.733 36.681 46.69 36.702 46.626 C 38.004 43.169 39.882 38.111 41.162 34.632 C 41.546 34.589 42.528 34.589 44.086 34.589 C 45.324 38.175 47.01 43.275 48.184 46.711 L 49.272 46.797 C 49.272 47.373 49.272 47.992 49.25 48.59 Z')" ></path></g>
<g class="ld " style="y:0px;x:0px;webkit-user-select:none;webkit-transform-origin:50px 50px;webkit-perspective-origin:0px 0px;webkit-animation-duration:1s;webkit-animation-delay:0.15s;webkit-animation:1s ease 0.15s 1 normal none running none;user-select:none;transform-origin:50px 50px;transform:none;r:0px;pointer-events:all;perspective-origin:0px 0px;direction:ltr;d:none" ><path class="st13" d="M41.866,38.559c-0.491,1.579-1.003,3.265-1.451,4.716c-0.021,0.085-0.021,0.128,0.043,0.128h2.988 c-0.448-1.409-0.96-3.159-1.472-4.845H41.866z" fill="#f5e9e3" style="webkit-user-select:none;webkit-perspective-origin:0px 0px;user-select:none;r:0px;pointer-events:all;perspective-origin:0px 0px;fill:rgb(245, 233, 227);d:path('M 41.866 38.559 C 41.375 40.138 40.863 41.824 40.415 43.275 C 40.394 43.36 40.394 43.403 40.458 43.403 H 43.446 C 42.998 41.994 42.486 40.244 41.974 38.558 H 41.866 Z')" ></path></g></g></g>
<g class="" style="x:0px;webkit-user-select:none;webkit-transform-origin:50px 50px;webkit-perspective-origin:0px 0px;user-select:none;transform-origin:50px 50px;transform:none;r:0px;pointer-events:all;perspective-origin:0px 0px" ><g class="" style="webkit-user-select:none;webkit-perspective-origin:0px 0px;user-select:none;pointer-events:all;perspective-origin:0px 0px" ><g class="ld " style="y:0px;x:0px;webkit-user-select:none;webkit-transform-origin:50px 50px;webkit-perspective-origin:0px 0px;webkit-animation-duration:1s;webkit-animation-delay:0.2s;webkit-animation:1s ease 0.2s 1 normal none running none;user-select:none;transform-origin:50px 50px;transform:none;r:0px;pointer-events:all;perspective-origin:0px 0px;direction:ltr;d:none" ><path class="st7" d="M72.738,66.501c1.999-2.589,3.012-5.885,3.012-9.812c0-10.095-6.619-15.885-18.16-15.885 s-18.16,5.79-18.16,15.885s6.619,15.884,18.16,15.884c3.095,0,5.873-0.429,8.275-1.276c1.579,1.164,3.621,2.449,5.547,2.992 c0.21,0.058,0.423,0.085,0.633,0.085c0.736,0,1.446-0.339,1.917-0.944c0.61-0.787,0.689-1.852,0.203-2.71 C73.687,69.876,73.169,68.334,72.738,66.501z M57.59,69.073c-12.117,0-14.66-6.734-14.66-12.384s2.543-12.385,14.66-12.385 s14.66,6.735,14.66,12.385c0,3.411-0.913,6.168-2.714,8.194l-0.586,0.659l0.182,0.863c0.185,0.874,0.491,2.183,0.911,3.469 c-0.868-0.505-1.821-1.159-2.815-1.938l-0.808-0.632l-0.946,0.395C63.292,68.611,60.64,69.073,57.59,69.073z" fill="#8dcc71" style="webkit-user-select:none;webkit-perspective-origin:0px 0px;user-select:none;r:0px;pointer-events:all;perspective-origin:0px 0px;fill:rgb(141, 204, 113);d:path('M 72.738 66.501 C 74.737 63.912 75.75 60.616 75.75 56.689 C 75.75 46.594 69.131 40.804 57.59 40.804 S 39.43 46.594 39.43 56.689 S 46.049 72.573 57.59 72.573 C 60.685 72.573 63.463 72.144 65.865 71.297 C 67.444 72.461 69.486 73.746 71.412 74.289 C 71.622 74.347 71.835 74.374 72.045 74.374 C 72.781 74.374 73.491 74.035 73.962 73.43 C 74.572 72.643 74.651 71.578 74.165 70.72 C 73.687 69.876 73.169 68.334 72.738 66.501 Z M 57.59 69.073 C 45.473 69.073 42.93 62.339 42.93 56.689 S 45.473 44.304 57.59 44.304 S 72.25 51.039 72.25 56.689 C 72.25 60.1 71.337 62.857 69.536 64.883 L 68.95 65.542 L 69.132 66.405 C 69.317 67.279 69.623 68.588 70.043 69.874 C 69.175 69.369 68.222 68.715 67.228 67.936 L 66.42 67.304 L 65.474 67.699 C 63.292 68.611 60.64 69.073 57.59 69.073 Z')" ></path></g>
<g class="" style="x:0px;webkit-user-select:none;webkit-transform-origin:50px 50px;webkit-perspective-origin:0px 0px;user-select:none;transform-origin:50px 50px;transform:none;r:0px;pointer-events:all;perspective-origin:0px 0px" ><g class="" style="webkit-user-select:none;webkit-perspective-origin:0px 0px;user-select:none;pointer-events:all;perspective-origin:0px 0px" ><g class="ld " style="y:0px;x:0px;webkit-user-select:none;webkit-transform-origin:50px 50px;webkit-perspective-origin:0px 0px;webkit-animation-duration:1s;webkit-animation-delay:0.25s;webkit-animation:1s ease 0.25s 1 normal none running none;user-select:none;transform-origin:50px 50px;transform:none;r:0px;pointer-events:all;perspective-origin:0px 0px;direction:ltr;d:none" ><path class="st13" d="M54.952,57.41c-0.022-0.011-0.043-0.011-0.064,0c-0.577,0.406-1.044,0.881-1.402,1.426 c-0.358,0.545-0.537,1.041-0.537,1.49c0,0.523,0.251,0.785,0.753,0.785c0.438,0,0.945-0.155,1.522-0.465 c0.075-0.032,0.101-0.091,0.08-0.176c-0.171-1.036-0.278-2.04-0.32-3.011C54.984,57.437,54.973,57.421,54.952,57.41z" fill="#f5e9e3" style="webkit-user-select:none;webkit-perspective-origin:0px 0px;user-select:none;r:0px;pointer-events:all;perspective-origin:0px 0px;fill:rgb(245, 233, 227);d:path('M 54.952 57.41 C 54.93 57.399 54.909 57.399 54.888 57.41 C 54.311 57.816 53.844 58.291 53.486 58.836 C 53.128 59.381 52.949 59.877 52.949 60.326 C 52.949 60.849 53.2 61.111 53.702 61.111 C 54.14 61.111 54.647 60.956 55.224 60.646 C 55.299 60.614 55.325 60.555 55.304 60.47 C 55.133 59.434 55.026 58.43 54.984 57.459 C 54.984 57.437 54.973 57.421 54.952 57.41 Z')" ></path></g>
<g class="ld " style="y:0px;x:0px;webkit-user-select:none;webkit-transform-origin:50px 50px;webkit-perspective-origin:0px 0px;webkit-animation-duration:1s;webkit-animation-delay:0.3s;webkit-animation:1s ease 0.3s 1 normal none running none;user-select:none;transform-origin:50px 50px;transform:none;r:0px;pointer-events:all;perspective-origin:0px 0px;direction:ltr;d:none" ><path class="st13" d="M58.908,56.128c-0.683,0.022-1.346,0.128-1.986,0.32c-0.075,0.022-0.112,0.075-0.112,0.16 c0,0.876,0.053,1.703,0.16,2.483c0,0.022,0.013,0.038,0.04,0.048c0.027,0.011,0.045,0.005,0.056-0.016 c0.822-0.833,1.463-1.794,1.922-2.883c0.011-0.032,0.008-0.059-0.008-0.08C58.964,56.139,58.94,56.128,58.908,56.128z" fill="#f5e9e3" style="webkit-user-select:none;webkit-perspective-origin:0px 0px;user-select:none;r:0px;pointer-events:all;perspective-origin:0px 0px;fill:rgb(245, 233, 227);d:path('M 58.908 56.128 C 58.225 56.15 57.562 56.256 56.922 56.448 C 56.847 56.47 56.81 56.523 56.81 56.608 C 56.81 57.484 56.863 58.311 56.97 59.091 C 56.97 59.113 56.983 59.129 57.01 59.139 C 57.037 59.15 57.055 59.144 57.066 59.123 C 57.888 58.29 58.529 57.329 58.988 56.24 C 58.999 56.208 58.996 56.181 58.98 56.16 C 58.964 56.139 58.94 56.128 58.908 56.128 Z')" ></path></g>
<g class="ld " style="y:0px;x:0px;webkit-user-select:none;webkit-transform-origin:50px 50px;webkit-perspective-origin:0px 0px;webkit-animation-duration:1s;webkit-animation-delay:0.35s;webkit-animation:1s ease 0.35s 1 normal none running none;user-select:none;transform-origin:50px 50px;transform:none;r:0px;pointer-events:all;perspective-origin:0px 0px;direction:ltr;d:none" ><path class="st13" d="M68.95,65.543l0.586-0.659c1.801-2.026,2.714-4.783,2.714-8.194c0-5.649-2.543-12.385-14.66-12.385 S42.93,51.04,42.93,56.689s2.543,12.384,14.66,12.384c3.05,0,5.702-0.462,7.884-1.374l0.946-0.395l0.808,0.632 c0.994,0.779,1.947,1.434,2.815,1.938c-0.42-1.286-0.727-2.595-0.911-3.469L68.95,65.543z M64.322,60.341 c-0.16,0.491-0.406,0.959-0.737,1.402c-0.331,0.443-0.79,0.838-1.378,1.185c-0.587,0.347-1.276,0.611-2.066,0.793 c-0.096,0.032-0.192,0.048-0.288,0.048c-0.171,0-0.342-0.038-0.512-0.112c-0.267-0.118-0.475-0.299-0.625-0.545L58.636,63 c-0.064-0.107-0.096-0.214-0.096-0.32c0-0.085,0.021-0.171,0.064-0.256c0.096-0.203,0.251-0.326,0.465-0.368 c1.164-0.256,2.034-0.691,2.611-1.305c0.577-0.614,0.865-1.3,0.865-2.058c0-0.491-0.133-0.932-0.4-1.322 c-0.267-0.39-0.651-0.697-1.153-0.921c-0.075-0.032-0.128-0.01-0.16,0.064c-0.833,1.997-1.933,3.578-3.3,4.741 c-0.054,0.054-0.07,0.118-0.048,0.192c0.01,0.064,0.027,0.128,0.048,0.192c0.032,0.096,0.048,0.192,0.048,0.288 c0,0.15-0.038,0.294-0.112,0.432c-0.118,0.224-0.299,0.374-0.545,0.448l-0.384,0.112c-0.16,0.053-0.318,0.04-0.473-0.04 c-0.155-0.08-0.254-0.2-0.296-0.36c-0.022-0.053-0.054-0.069-0.096-0.048c-0.854,0.416-1.671,0.625-2.451,0.625 c-0.641,0-1.167-0.2-1.578-0.601c-0.411-0.401-0.617-0.99-0.617-1.77c0-1.004,0.366-1.997,1.097-2.979 c0.731-0.982,1.658-1.751,2.779-2.307c0.075-0.032,0.117-0.091,0.128-0.176c0.053-0.779,0.101-1.378,0.144-1.794 c0-0.075-0.038-0.112-0.112-0.112h-0.4c-0.438,0-1.084-0.021-1.938-0.064c-0.267-0.01-0.491-0.107-0.673-0.288 c-0.203-0.203-0.304-0.443-0.304-0.721c0-0.235,0.091-0.432,0.272-0.593c0.16-0.149,0.342-0.224,0.545-0.224 c0.032,0,0.064,0.005,0.096,0.016c0.811,0.064,1.5,0.096,2.066,0.096h0.497c0.085,0,0.128-0.037,0.128-0.112l0.096-0.753v-0.016 c0.032-0.267,0.139-0.491,0.32-0.673c0.182-0.171,0.395-0.256,0.641-0.256c0.011,0,0.021,0,0.032,0h0.24 c0.235,0.011,0.427,0.112,0.577,0.304c0.096,0.139,0.144,0.288,0.144,0.449c0,0.064-0.005,0.128-0.016,0.192 c-0.043,0.171-0.086,0.406-0.128,0.705c-0.011,0.032-0.005,0.059,0.016,0.08c0.021,0.021,0.048,0.032,0.08,0.032 c1.634-0.064,3.123-0.224,4.469-0.481c0.064-0.01,0.123-0.016,0.176-0.016c0.171,0,0.326,0.054,0.465,0.16 c0.192,0.15,0.288,0.347,0.288,0.593c0,0.267-0.085,0.502-0.256,0.705c-0.171,0.214-0.39,0.336-0.657,0.368 c-1.356,0.203-2.937,0.352-4.741,0.448c-0.075,0-0.118,0.038-0.128,0.112c-0.054,0.513-0.086,0.919-0.096,1.217 c0,0.032,0.01,0.059,0.032,0.08c0.021,0.022,0.048,0.027,0.08,0.016c0.801-0.171,1.57-0.256,2.307-0.256h0.176 c0.075,0,0.117-0.037,0.128-0.112c0.043-0.235,0.16-0.416,0.352-0.545c0.139-0.096,0.283-0.144,0.432-0.144 c0.064,0,0.128,0.005,0.192,0.016l0.384,0.096c0.203,0.043,0.352,0.155,0.449,0.336c0.064,0.118,0.096,0.235,0.096,0.352 c0,0.075-0.016,0.15-0.048,0.224c-0.021,0.064,0,0.107,0.064,0.128c0.94,0.331,1.682,0.844,2.227,1.538 c0.545,0.694,0.817,1.5,0.817,2.419C64.562,59.332,64.482,59.85,64.322,60.341z" fill="#f5e9e3" style="webkit-user-select:none;webkit-perspective-origin:0px 0px;user-select:none;r:0px;pointer-events:all;perspective-origin:0px 0px;fill:rgb(245, 233, 227);d:path('M 68.95 65.543 L 69.536 64.884 C 71.337 62.858 72.25 60.101 72.25 56.69 C 72.25 51.041 69.707 44.305 57.59 44.305 S 42.93 51.04 42.93 56.689 S 45.473 69.073 57.59 69.073 C 60.64 69.073 63.292 68.611 65.474 67.699 L 66.42 67.304 L 67.228 67.936 C 68.222 68.715 69.175 69.37 70.043 69.874 C 69.623 68.588 69.316 67.279 69.132 66.405 L 68.95 65.543 Z M 64.322 60.341 C 64.162 60.832 63.916 61.3 63.585 61.743 C 63.254 62.186 62.795 62.581 62.207 62.928 C 61.62 63.275 60.931 63.539 60.141 63.721 C 60.045 63.753 59.949 63.769 59.853 63.769 C 59.682 63.769 59.511 63.731 59.341 63.657 C 59.074 63.539 58.866 63.358 58.716 63.112 L 58.636 63 C 58.572 62.893 58.54 62.786 58.54 62.68 C 58.54 62.595 58.561 62.509 58.604 62.424 C 58.7 62.221 58.855 62.098 59.069 62.056 C 60.233 61.8 61.103 61.365 61.68 60.751 C 62.257 60.137 62.545 59.451 62.545 58.693 C 62.545 58.202 62.412 57.761 62.145 57.371 C 61.878 56.981 61.494 56.674 60.992 56.45 C 60.917 56.418 60.864 56.44 60.832 56.514 C 59.999 58.511 58.899 60.092 57.532 61.255 C 57.478 61.309 57.462 61.373 57.484 61.447 C 57.494 61.511 57.511 61.575 57.532 61.639 C 57.564 61.735 57.58 61.831 57.58 61.927 C 57.58 62.077 57.542 62.221 57.468 62.359 C 57.35 62.583 57.169 62.733 56.923 62.807 L 56.539 62.919 C 56.379 62.972 56.221 62.959 56.066 62.879 C 55.911 62.799 55.812 62.679 55.77 62.519 C 55.748 62.466 55.716 62.45 55.674 62.471 C 54.82 62.887 54.003 63.096 53.223 63.096 C 52.582 63.096 52.056 62.896 51.645 62.495 C 51.234 62.094 51.028 61.505 51.028 60.725 C 51.028 59.721 51.394 58.728 52.125 57.746 C 52.856 56.764 53.783 55.995 54.904 55.439 C 54.979 55.407 55.021 55.348 55.032 55.263 C 55.085 54.484 55.133 53.885 55.176 53.469 C 55.176 53.394 55.138 53.357 55.064 53.357 H 54.664 C 54.226 53.357 53.58 53.336 52.726 53.293 C 52.459 53.283 52.235 53.186 52.053 53.005 C 51.85 52.802 51.749 52.562 51.749 52.284 C 51.749 52.049 51.84 51.852 52.021 51.691 C 52.181 51.542 52.363 51.467 52.566 51.467 C 52.598 51.467 52.63 51.472 52.662 51.483 C 53.473 51.547 54.162 51.579 54.728 51.579 H 55.225 C 55.31 51.579 55.353 51.542 55.353 51.467 L 55.449 50.714 V 50.698 C 55.481 50.431 55.588 50.207 55.769 50.025 C 55.951 49.854 56.164 49.769 56.41 49.769 C 56.421 49.769 56.431 49.769 56.442 49.769 H 56.682 C 56.917 49.78 57.109 49.881 57.259 50.073 C 57.355 50.212 57.403 50.361 57.403 50.522 C 57.403 50.586 57.398 50.65 57.387 50.714 C 57.344 50.885 57.301 51.12 57.259 51.419 C 57.248 51.451 57.254 51.478 57.275 51.499 C 57.296 51.52 57.323 51.531 57.355 51.531 C 58.989 51.467 60.478 51.307 61.824 51.05 C 61.888 51.04 61.947 51.034 62 51.034 C 62.171 51.034 62.326 51.088 62.465 51.194 C 62.657 51.344 62.753 51.541 62.753 51.787 C 62.753 52.054 62.668 52.289 62.497 52.492 C 62.326 52.706 62.107 52.828 61.84 52.86 C 60.484 53.063 58.903 53.212 57.099 53.308 C 57.024 53.308 56.981 53.346 56.971 53.42 C 56.917 53.933 56.885 54.339 56.875 54.637 C 56.875 54.669 56.885 54.696 56.907 54.717 C 56.928 54.739 56.955 54.744 56.987 54.733 C 57.788 54.562 58.557 54.477 59.294 54.477 H 59.47 C 59.545 54.477 59.587 54.44 59.598 54.365 C 59.641 54.13 59.758 53.949 59.95 53.82 C 60.089 53.724 60.233 53.676 60.382 53.676 C 60.446 53.676 60.51 53.681 60.574 53.692 L 60.958 53.788 C 61.161 53.831 61.31 53.943 61.407 54.124 C 61.471 54.242 61.503 54.359 61.503 54.476 C 61.503 54.551 61.487 54.626 61.455 54.7 C 61.434 54.764 61.455 54.807 61.519 54.828 C 62.459 55.159 63.201 55.672 63.746 56.366 C 64.291 57.06 64.563 57.866 64.563 58.785 C 64.562 59.332 64.482 59.85 64.322 60.341 Z')" ></path></g></g></g></g></g>
<metadata xmlns:d="https://loading.io/stock/" class="ld " style="y:0px;x:0px;webkit-user-select:none;webkit-transform-origin:50px 50px;webkit-animation-duration:1s;webkit-animation-delay:0.4s;webkit-animation:1s ease 0.4s 1 normal none running none;user-select:none;transform-origin:50px 50px;transform:none;r:0px;pointer-events:all;direction:ltr;d:none" ><d:name class="ld " style="y:0px;x:0px;webkit-user-select:none;webkit-transform-origin:50px 50px;webkit-animation-duration:1s;webkit-animation-delay:0.45s;webkit-animation:1s ease 0.45s 1 normal none running none;user-select:none;transform-origin:50px 50px;transform:none;r:0px;pointer-events:all;direction:ltr;d:none" >translator</d:name>


<d:tags class="ld " style="y:0px;x:0px;webkit-user-select:none;webkit-transform-origin:50px 50px;webkit-animation-duration:1s;webkit-animation-delay:0.5s;webkit-animation:1s ease 0.5s 1 normal none running none;user-select:none;transform-origin:50px 50px;transform:none;r:0px;pointer-events:all;direction:ltr;d:none" >translator,translation,linguist,language,foreigner,grammar,text,context</d:tags>


<d:license class="ld " style="y:0px;x:0px;webkit-user-select:none;webkit-transform-origin:50px 50px;webkit-animation-duration:1s;webkit-animation-delay:0.55s;webkit-animation:1s ease 0.55s 1 normal none running none;user-select:none;transform-origin:50px 50px;transform:none;r:0px;pointer-events:all;direction:ltr;d:none" >cc-by</d:license>


<d:slug class="ld " style="y:0px;x:0px;webkit-user-select:none;webkit-transform-origin:50px 50px;webkit-animation-duration:1s;webkit-animation-delay:0.6s;webkit-animation:1s ease 0.6s 1 normal none running none;user-select:none;transform-origin:50px 50px;transform:none;r:0px;pointer-events:all;direction:ltr;d:none" >wi0jag</d:slug></metadata></g></g></g></g>
<style type="text/css" class="ld " style="y:0px;x:0px;webkit-user-select:none;webkit-transform-origin:50px 50px;webkit-animation-duration:1s;webkit-animation-delay:0.65s;webkit-animation:1s ease 0.65s 1 normal none running none;user-select:none;transform-origin:50px 50px;transform:none;r:0px;pointer-events:all;direction:ltr;d:none" >@keyframes ldt-bounce-in {
  0% {
    -webkit-transform: scale(0);
    transform: scale(0);
  }
  5% {
    -webkit-transform: scale(0.0846);
    transform: scale(0.0846);
  }
  6% {
    -webkit-transform: scale(0.191);
    transform: scale(0.191);
  }
  7% {
    -webkit-transform: scale(0.3255);
    transform: scale(0.3255);
  }
  8% {
    -webkit-transform: scale(0.4804);
    transform: scale(0.4804);
  }
  9% {
    -webkit-transform: scale(0.646);
    transform: scale(0.646);
  }
  10% {
    -webkit-transform: scale(0.8116);
    transform: scale(0.8116);
  }
  11% {
    -webkit-transform: scale(0.9665);
    transform: scale(0.9665);
  }
  12% {
    -webkit-transform: scale(1.1);
    transform: scale(1.1);
  }
  13% {
    -webkit-transform: scale(1.2069);
    transform: scale(1.2069);
  }
  14% {
    -webkit-transform: scale(1.2796);
    transform: scale(1.2796);
  }
  19% {
    -webkit-transform: scale(1.1558);
    transform: scale(1.1558);
  }
  20% {
    -webkit-transform: scale(1.07);
    transform: scale(1.07);
  }
  21% {
    -webkit-transform: scale(0.9823);
    transform: scale(0.9823);
  }
  22% {
    -webkit-transform: scale(0.901);
    transform: scale(0.901);
  }
  23% {
    -webkit-transform: scale(0.8328);
    transform: scale(0.8328);
  }
  25% {
    -webkit-transform: scale(0.7551);
    transform: scale(0.7551);
  }
  29% {
    -webkit-transform: scale(0.8516);
    transform: scale(0.8516);
  }
  31% {
    -webkit-transform: scale(0.973);
    transform: scale(0.973);
  }
  33% {
    -webkit-transform: scale(1.0857);
    transform: scale(1.0857);
  }
  35% {
    -webkit-transform: scale(1.1538);
    transform: scale(1.1538);
  }
  40% {
    -webkit-transform: scale(1.0771);
    transform: scale(1.0771);
  }
  42% {
    -webkit-transform: scale(0.9954);
    transform: scale(0.9954);
  }
  45% {
    -webkit-transform: scale(0.9057);
    transform: scale(0.9057);
  }
  52% {
    -webkit-transform: scale(0.9908);
    transform: scale(0.9908);
  }
  56% {
    -webkit-transform: scale(1.0623);
    transform: scale(1.0623);
  }
  64% {
    -webkit-transform: scale(0.9845);
    transform: scale(0.9845);
  }
  100% {
    -webkit-transform: scale(1);
    transform: scale(1);
  }
}
@-webkit-keyframes ldt-bounce-in {
  0% {
    -webkit-transform: scale(0);
    transform: scale(0);
  }
  5% {
    -webkit-transform: scale(0.0846);
    transform: scale(0.0846);
  }
  6% {
    -webkit-transform: scale(0.191);
    transform: scale(0.191);
  }
  7% {
    -webkit-transform: scale(0.3255);
    transform: scale(0.3255);
  }
  8% {
    -webkit-transform: scale(0.4804);
    transform: scale(0.4804);
  }
  9% {
    -webkit-transform: scale(0.646);
    transform: scale(0.646);
  }
  10% {
    -webkit-transform: scale(0.8116);
    transform: scale(0.8116);
  }
  11% {
    -webkit-transform: scale(0.9665);
    transform: scale(0.9665);
  }
  12% {
    -webkit-transform: scale(1.1);
    transform: scale(1.1);
  }
  13% {
    -webkit-transform: scale(1.2069);
    transform: scale(1.2069);
  }
  14% {
    -webkit-transform: scale(1.2796);
    transform: scale(1.2796);
  }
  19% {
    -webkit-transform: scale(1.1558);
    transform: scale(1.1558);
  }
  20% {
    -webkit-transform: scale(1.07);
    transform: scale(1.07);
  }
  21% {
    -webkit-transform: scale(0.9823);
    transform: scale(0.9823);
  }
  22% {
    -webkit-transform: scale(0.901);
    transform: scale(0.901);
  }
  23% {
    -webkit-transform: scale(0.8328);
    transform: scale(0.8328);
  }
  25% {
    -webkit-transform: scale(0.7551);
    transform: scale(0.7551);
  }
  29% {
    -webkit-transform: scale(0.8516);
    transform: scale(0.8516);
  }
  31% {
    -webkit-transform: scale(0.973);
    transform: scale(0.973);
  }
  33% {
    -webkit-transform: scale(1.0857);
    transform: scale(1.0857);
  }
  35% {
    -webkit-transform: scale(1.1538);
    transform: scale(1.1538);
  }
  40% {
    -webkit-transform: scale(1.0771);
    transform: scale(1.0771);
  }
  42% {
    -webkit-transform: scale(0.9954);
    transform: scale(0.9954);
  }
  45% {
    -webkit-transform: scale(0.9057);
    transform: scale(0.9057);
  }
  52% {
    -webkit-transform: scale(0.9908);
    transform: scale(0.9908);
  }
  56% {
    -webkit-transform: scale(1.0623);
    transform: scale(1.0623);
  }
  64% {
    -webkit-transform: scale(0.9845);
    transform: scale(0.9845);
  }
  100% {
    -webkit-transform: scale(1);
    transform: scale(1);
  }
}
.ldt-bounce-in {
  -webkit-transform: scale(0);
  transform: scale(0);
  -webkit-animation: ldt-bounce-in 1s ease-out forwards;
  animation: ldt-bounce-in 1s ease-out forwards;
}</style></svg></svg>